General
Complete name                    : D:\\TOORENT FOR UPLOAD\\New folder\\Munich 2005 BRrip Hindi by RoYStaR.m4v
Format                           : MPEG-4
Format profile                   : Base Media / Version 2
Codec ID                         : mp42
File size                        : 1.15 GiB
Duration                         : 2h 31mn
Overall bit rate                 : 1 085 Kbps
Encoded date                     : UTC 2011-07-25 04:28:34
Tagged date                      : UTC 2011-07-25 07:09:01
Writing application              : HandBrake 0.9.5 2011010300

Video
ID                               : 1
Format                           : AVC
Format/Info                      : Advanced Video Codec
Format profile                   : Main@L3.0
Format settings, CABAC           : Yes
Format settings, ReFrames        : 4 frames
Codec ID                         : avc1
Codec ID/Info                    : Advanced Video Coding
Duration                         : 2h 31mn
Bit rate mode                    : Variable
Bit rate                         : 970 Kbps
Width                            : 740 pixels
Height                           : 420 pixels
Display aspect ratio             : 16:9
Frame rate mode                  : Variable
Frame rate                       : 25.000 fps
Minimum frame rate               : 24.390 fps
Maximum frame rate               : 25.000 fps
Color space                      : YUV
Chroma subsampling               : 4:2:0
Bit depth                        : 8 bits
Scan type                        : Progressive
Bits/(Pixel*Frame)               : 0.125
Stream size                      : 1.03 GiB (89%)
Writing library                  : x264 core 112

Encoded date                     : UTC 2011-07-25 04:28:34
Tagged date                      : UTC 2011-07-25 07:09:01
Color primaries                  : BT.709-5, BT.1361, IEC 61966-2-4, SMPTE RP177
Transfer characteristics         : BT.709-5, BT.1361
Matrix coefficients              : BT.709-5, BT.1361, IEC 61966-2-4 709, SMPTE RP177

Audio
ID                               : 2
Format                           : AAC
Format/Info                      : Advanced Audio Codec
Format profile                   : LC
Codec ID                         : 40
Duration                         : 2h 30mn
Bit rate mode                    : Variable
Bit rate                         : 112 Kbps
Maximum bit rate                 : 174 Kbps
Channel(s)                       : 2 channels
Channel positions                : Front: L R
Sampling rate                    : 44.1 KHz
Compression mode                 : Lossy
Stream size                      : 120 MiB (10%)
Language                         : Hindi
Encoded date                     : UTC 2011-07-25 04:28:34
Tagged date                      : UTC 2011-07-25 07:09:01



This is quality upload. . . . . . . 

Because i am upload only quality torrent....




ENJOY................ *RoY StaR*